<svg width="15" height="16" viewBox="0 0 15 16" fill="none" xmlns="http://www.w3.org/2000/svg">
<path d="M14.6144 11.6787L12.7496 9.71013C12.2355 9.16742 11.3989 9.16742 10.8848 9.71013L10.0372 10.6049C9.64769 11.0161 9.01392 11.016 8.62457 10.6051L4.95058 6.72332C4.56018 6.31119 4.56012 5.64415 4.95058 5.23197C5.08711 5.08784 5.47915 4.67398 5.79821 4.33717C6.31008 3.79685 6.31722 2.91646 5.79771 2.3681L3.93341 0.40623C3.41928 -0.136475 2.58273 -0.136475 2.06999 0.404808C1.6863 0.806323 1.56254 0.935853 1.3905 1.11589C-0.463486 3.07302 -0.463486 6.25753 1.39041 8.2146L7.21173 14.3631C9.07005 16.3249 12.0778 16.325 13.9363 14.3631L14.6144 13.6473C15.1285 13.1045 15.1285 12.2214 14.6144 11.6787ZM2.69023 1.06241C2.86159 0.881511 3.14039 0.88148 3.31232 1.06291L5.17662 3.02477C5.34839 3.20611 5.34839 3.49959 5.17662 3.68096L4.86579 4.00905L2.38101 1.38599L2.69023 1.06241ZM7.83343 13.707L2.01209 7.55845C0.577712 6.04425 0.498871 3.66661 1.76962 2.05296L4.24719 4.66842C3.59619 5.44748 3.62332 6.63461 4.32885 7.37941L8.00272 11.261C8.00275 11.261 8.00281 11.2611 8.00284 11.2611C8.7076 12.0051 9.8321 12.0356 10.571 11.3475L13.0486 13.963C11.5249 15.3021 9.27769 15.2316 7.83343 13.707ZM13.9928 12.9911L13.682 13.3192L11.1956 10.6944L11.5064 10.3663C11.6778 10.1854 11.9566 10.1854 12.128 10.3663L13.9928 12.3349C14.1642 12.5158 14.1642 12.8102 13.9928 12.9911Z" fill="white"/>
</svg>
