<svg width="11" height="18" viewBox="0 0 11 18" fill="none" xmlns="http://www.w3.org/2000/svg">
<path d="M5.5 0.998047C2.4673 0.998047 0 3.59876 0 6.79544C0 7.8755 0.283831 8.92953 0.820997 9.84397L5.18693 17.26C5.27056 17.4021 5.4179 17.4884 5.57636 17.4884C5.57758 17.4884 5.57877 17.4884 5.58 17.4884C5.73983 17.4871 5.88748 17.3981 5.96958 17.2536L10.2242 9.76564C10.7318 8.87052 11 7.84345 11 6.79544C11 3.59876 8.5327 0.998047 5.5 0.998047ZM9.43757 9.26958L5.56942 16.0773L1.6001 9.3349C1.15298 8.57376 0.910556 7.69565 0.910556 6.79544C0.910556 4.13154 2.97275 1.95784 5.5 1.95784C8.02725 1.95784 10.0864 4.13154 10.0864 6.79544C10.0864 7.66895 9.85994 8.52461 9.43757 9.26958Z" fill="white"/>
<path d="M5.50014 3.44141C3.8153 3.44141 2.44458 4.81133 2.44458 6.49518C2.44458 8.16827 3.793 9.54895 5.50014 9.54895C7.22832 9.54895 8.55569 8.14988 8.55569 6.49518C8.55569 4.81133 7.18497 3.44141 5.50014 3.44141ZM5.50014 8.53781C4.37104 8.53781 3.45631 7.62056 3.45631 6.49518C3.45631 5.37261 4.37691 4.45254 5.50014 4.45254C6.62336 4.45254 7.54057 5.37261 7.54057 6.49518C7.54057 7.60414 6.64712 8.53781 5.50014 8.53781Z" fill="white"/>
</svg>
