<svg width="64" height="64" viewBox="0 0 64 64" fill="none" xmlns="http://www.w3.org/2000/svg">
<path d="M63.2242 35.1928C62.8667 33.9137 62.53 32.7046 62.53 31.6013C62.53 30.498 62.8667 29.2889 63.2242 28.0097C63.7932 25.9735 64.3803 23.8672 63.6777 21.8199C62.9487 19.6903 61.1318 18.2985 59.3748 16.9547C58.3216 16.1482 57.3269 15.387 56.6814 14.5489C56.0248 13.6943 55.5601 12.5539 55.0704 11.3461C54.2621 9.36213 53.4274 7.30941 51.5576 6.02063C49.7185 4.75108 47.423 4.62879 45.2068 4.51201C43.824 4.43919 42.5163 4.36911 41.4214 4.03249C40.3975 3.71785 39.3374 3.06521 38.2161 2.3741C36.4117 1.26119 34.3652 -0.00012207 31.9988 -0.00012207C29.6324 -0.00012207 27.5859 1.26119 25.7816 2.37548C24.6603 3.06659 23.6029 3.7206 22.5776 4.03386C21.4814 4.37049 20.1736 4.44056 18.7908 4.51338C16.5732 4.63154 14.2805 4.75245 12.44 6.022C10.5702 7.31079 9.7355 9.36213 8.92722 11.3461C8.43474 12.5539 7.97008 13.6956 7.31343 14.5503C6.66792 15.3911 5.67321 16.1523 4.62008 16.9602C2.86439 18.3053 1.05027 19.6944 0.321281 21.8213C-0.381273 23.8699 0.205812 25.9748 0.77342 28.0124C1.13096 29.2916 1.46763 30.4993 1.46763 31.6026C1.46763 32.7059 1.13096 33.915 0.77342 35.1942C0.205812 37.2304 -0.381273 39.3367 0.321281 41.3867C1.05027 43.5136 2.86578 44.9054 4.62147 46.2492C5.6746 47.0543 6.66931 47.8169 7.31343 48.655C7.97147 49.5096 8.43613 50.65 8.92722 51.8591C9.7355 53.8431 10.5716 55.8959 12.4428 57.1874C14.2805 58.4542 16.5746 58.5751 18.7908 58.6919C20.1736 58.7647 21.4814 58.8348 22.5762 59.1714C23.6002 59.486 24.6589 60.1387 25.7788 60.8284C27.5845 61.94 29.631 63.2026 31.9988 63.2026C34.3666 63.2026 36.4145 61.94 38.2216 60.827C39.3415 60.1373 40.3988 59.4847 41.4242 59.17C42.519 58.8334 43.8268 58.7633 45.2096 58.6905C47.4272 58.5737 49.7199 58.4528 51.5576 57.186C53.4316 55.8945 54.2663 53.839 55.0746 51.8536C55.5657 50.6473 56.0289 49.5069 56.6828 48.655C57.3283 47.8169 58.323 47.0543 59.3762 46.2492C61.1332 44.9041 62.9487 43.5136 63.6791 41.3853C64.3817 39.3354 63.7932 37.2304 63.2242 35.1928ZM61.0426 40.5046C60.5821 41.8484 59.1673 42.931 57.6704 44.0769C56.5226 44.9563 55.3346 45.8658 54.4665 46.9925C53.5858 48.1411 53.0293 49.5069 52.491 50.83C51.8051 52.5173 51.1568 54.1097 49.9645 54.9313C48.7765 55.7502 46.9721 55.845 45.0606 55.9453C43.5678 56.0236 42.0222 56.1047 40.5948 56.5444C39.2301 56.9662 37.9669 57.7425 36.7468 58.4954C35.1121 59.5039 33.5693 60.4547 31.9986 60.4547C30.428 60.4547 28.8865 59.5039 27.2519 58.4954C26.0332 57.7438 24.7714 56.9662 23.4052 56.5444C21.9779 56.1061 20.4322 56.0236 18.9395 55.9453C17.028 55.845 15.2222 55.7488 14.0355 54.9313C12.8447 54.1097 12.195 52.5173 11.5091 50.8314C10.9707 49.5083 10.4128 48.1411 9.53082 46.9925C8.66411 45.8658 7.47603 44.9563 6.3269 44.0756C4.83136 42.9297 3.41791 41.8484 2.95742 40.5046C2.52754 39.2529 2.97968 37.6344 3.45686 35.9224C3.8464 34.5223 4.24984 33.0769 4.24984 31.5999C4.24984 30.1229 3.8464 28.6788 3.45686 27.2787C2.97829 25.5668 2.52754 23.9496 2.95742 22.6979C3.41791 21.3542 4.82997 20.2729 6.32551 19.127C7.47464 18.2462 8.66411 17.3353 9.52943 16.2073C10.4142 15.0586 10.9707 13.6901 11.5105 12.367C12.195 10.6811 12.8433 9.09008 14.0327 8.2712C15.2208 7.45093 17.028 7.35613 18.9409 7.25583C20.4322 7.17614 21.9779 7.09508 23.4038 6.6554C24.7714 6.23497 26.0346 5.45593 27.2561 4.70299C28.8879 3.69861 30.4294 2.74782 31.9986 2.74782C33.5679 2.74782 35.1107 3.69861 36.744 4.70574C37.9655 5.46005 39.2273 6.23772 40.5948 6.65815C42.0208 7.09645 43.565 7.17751 45.0578 7.2572C46.9707 7.3575 48.7765 7.45506 49.9645 8.27394C51.1554 9.09558 51.8037 10.6866 52.4882 12.3698C53.028 13.6943 53.583 15.0614 54.4678 16.21C55.3346 17.3367 56.5226 18.2462 57.6704 19.1256C59.1673 20.2729 60.5821 21.3555 61.0426 22.702C61.4725 23.951 61.019 25.5681 60.5418 27.2801C60.1509 28.6802 59.7474 30.1256 59.7474 31.6026C59.7474 33.0797 60.1495 34.5251 60.5418 35.9238C61.0205 37.6357 61.4725 39.2529 61.0426 40.5046Z" fill="white"/>
<path d="M31.9988 10.991C20.4922 10.991 11.1309 20.2365 11.1309 31.6006C11.1309 42.9648 20.4922 52.2103 31.9988 52.2103C43.5054 52.2103 52.8667 42.9648 52.8667 31.6006C52.8667 20.2365 43.5054 10.991 31.9988 10.991ZM31.9988 49.4623C22.0267 49.4623 13.9133 41.4493 13.9133 31.6006C13.9133 21.752 22.0267 13.739 31.9988 13.739C37.1421 13.739 41.7789 15.881 45.076 19.2967L31.8179 37.7231L24.6352 30.6292C24.0912 30.092 23.212 30.092 22.668 30.6292C22.1241 31.1665 22.1241 32.0348 22.668 32.572L31.0152 40.8159C31.2768 41.0756 31.6315 41.2185 31.9988 41.2185C32.0364 41.2185 32.0767 41.2171 32.1157 41.213C32.5233 41.18 32.8961 40.9698 33.1326 40.64L46.9013 21.5033C48.9046 24.3777 50.0844 27.8538 50.0844 31.6006C50.0844 41.4493 41.9709 49.4623 31.9988 49.4623Z" fill="white"/>
</svg>
