<svg width="74" height="78" viewBox="0 0 74 78" fill="none" xmlns="http://www.w3.org/2000/svg">
<path d="M22.3146 13.5635C21.6898 13.5635 21.1831 14.1085 21.1831 14.7809C21.1831 16.2576 20.0664 17.459 18.6939 17.459C17.3214 17.459 16.2047 16.2576 16.2047 14.7809C16.2047 13.3042 17.3214 12.1028 18.6939 12.1028C19.3187 12.1028 19.8254 11.5578 19.8254 10.8854C19.8254 10.213 19.3189 9.66803 18.6939 9.66803C16.0736 9.66803 13.9419 11.9617 13.9419 14.7807C13.9419 17.5998 16.0737 19.8934 18.6939 19.8934C21.3141 19.8934 23.4459 17.5998 23.4459 14.7807C23.4461 14.1085 22.9394 13.5635 22.3146 13.5635Z" fill="white"/>
<path d="M22.3146 27.8467C21.6898 27.8467 21.1831 28.3917 21.1831 29.0641C21.1831 30.5408 20.0664 31.7422 18.6939 31.7422C17.3214 31.7422 16.2047 30.5408 16.2047 29.0641C16.2047 27.5874 17.3214 26.386 18.6939 26.386C19.3187 26.386 19.8254 25.841 19.8254 25.1686C19.8254 24.4962 19.3189 23.9512 18.6939 23.9512C16.0736 23.9512 13.9419 26.2449 13.9419 29.0639C13.9419 31.883 16.0737 34.1766 18.6939 34.1766C21.3141 34.1766 23.4459 31.883 23.4459 29.0639C23.4461 28.3919 22.9394 27.8467 22.3146 27.8467Z" fill="white"/>
<path d="M40.6865 31.3077H32.2384C31.6136 31.3077 31.1069 31.8527 31.1069 32.5251C31.1069 33.1975 31.6135 33.7424 32.2384 33.7424H40.6865C41.3113 33.7424 41.818 33.1975 41.818 32.5251C41.818 31.8527 41.3115 31.3077 40.6865 31.3077Z" fill="white"/>
<path d="M40.6865 26.114H32.2384C31.6136 26.114 31.1069 26.659 31.1069 27.3314C31.1069 28.0038 31.6135 28.5488 32.2384 28.5488H40.6865C41.3113 28.5488 41.818 28.0038 41.818 27.3314C41.818 26.659 41.3115 26.114 40.6865 26.114Z" fill="white"/>
<path d="M38.2728 45.5909H32.2384C31.6136 45.5909 31.1069 46.1359 31.1069 46.8083C31.1069 47.4807 31.6135 48.0256 32.2384 48.0256H38.2728C38.8976 48.0256 39.4043 47.4807 39.4043 46.8083C39.4043 46.1359 38.8976 45.5909 38.2728 45.5909Z" fill="white"/>
<path d="M40.6865 40.3972H32.2384C31.6136 40.3972 31.1069 40.9422 31.1069 41.6146C31.1069 42.2869 31.6135 42.8319 32.2384 42.8319H40.6865C41.3113 42.8319 41.818 42.2869 41.818 41.6146C41.818 40.9422 41.3115 40.3972 40.6865 40.3972Z" fill="white"/>
<path d="M51.5484 17.0246H32.2384C31.6136 17.0246 31.1069 17.5696 31.1069 18.242C31.1069 18.9144 31.6135 19.4594 32.2384 19.4594H51.5482C52.173 19.4594 52.6797 18.9144 52.6797 18.242C52.6797 17.5696 52.1732 17.0246 51.5484 17.0246Z" fill="white"/>
<path d="M46.7208 11.8309H32.2384C31.6136 11.8309 31.1069 12.3759 31.1069 13.0482C31.1069 13.7206 31.6135 14.2656 32.2384 14.2656H46.7208C47.3456 14.2656 47.8523 13.7206 47.8523 13.0482C47.8523 12.3759 47.3458 11.8309 46.7208 11.8309Z" fill="white"/>
<path d="M22.3146 42.1295C21.6898 42.1295 21.1831 42.6745 21.1831 43.3469C21.1831 44.8236 20.0664 46.025 18.6939 46.025C17.3214 46.025 16.2047 44.8236 16.2047 43.3469C16.2047 41.8702 17.3214 40.6687 18.6939 40.6687C19.3187 40.6687 19.8254 40.1238 19.8254 39.4514C19.8254 38.779 19.3189 38.234 18.6939 38.234C16.0736 38.234 13.9419 40.5277 13.9419 43.3467C13.9419 46.1658 16.0737 48.4595 18.6939 48.4595C21.3141 48.4595 23.4459 46.1658 23.4459 43.3467C23.4461 42.6745 22.9394 42.1295 22.3146 42.1295Z" fill="white"/>
<path d="M58.487 -6.10352e-05H4.65125C2.08667 -6.10352e-05 0 1.71095 0 3.81419V58.3498C0 60.453 2.08648 62.1641 4.65125 62.1641H31.5692C32.389 62.1641 33.0537 61.6191 33.0537 60.9467C33.0537 60.2745 32.3891 59.7293 31.5692 59.7293H4.65125C3.72356 59.7293 2.96881 59.1104 2.96881 58.3497V3.81419C2.96881 3.05343 3.72356 2.43451 4.65125 2.43451H58.487C59.4147 2.43451 60.1694 3.05343 60.1694 3.81419V44.0669C60.1694 44.7391 60.834 45.2843 61.6539 45.2843C62.4737 45.2843 63.1384 44.7393 63.1384 44.0669V3.81419C63.1382 1.71095 61.0518 -6.10352e-05 58.487 -6.10352e-05Z" fill="white"/>
<path d="M70.2756 49.3646C69.224 49.2517 68.1729 49.5724 67.3411 50.252C66.6785 49.0557 65.5485 48.207 64.2412 48.0661C63.1893 47.9534 62.1384 48.2741 61.3067 48.9535C60.6441 47.7573 59.5142 46.9086 58.2068 46.7677C57.4038 46.6814 56.6019 46.8478 55.8972 47.2337V31.7313C55.8972 30.4726 55.3995 29.2661 54.5314 28.421C53.6641 27.5768 52.4954 27.1646 51.3247 27.2907C49.236 27.5157 47.6 29.5476 47.6 31.9166V47.4581L44.274 51.0366C42.5066 52.9381 41.7931 55.6362 42.3657 58.254L44.8908 69.8C45.9139 74.4786 49.7483 77.746 54.2155 77.746H64.4206C69.7027 77.746 74.0001 73.1226 74.0001 67.4394V53.9907C74.0003 51.6215 72.3642 49.5896 70.2756 49.3646ZM71.7373 67.4391C71.7373 71.7796 68.4551 75.311 64.4207 75.311H54.2157C50.8038 75.311 47.8749 72.8154 47.0935 69.242L44.5684 57.696C44.1766 55.9049 44.6648 54.0588 45.8741 52.7577L47.6 50.9008V55.1036C47.6 55.7759 48.1065 56.321 48.7315 56.321C49.3564 56.321 49.8629 55.776 49.8629 55.1036V31.9164C49.8629 30.7829 50.604 29.815 51.5504 29.7133C52.0939 29.6545 52.6137 29.837 53.0134 30.2263C53.4081 30.6107 53.6345 31.1593 53.6345 31.7315V53.1562C53.6345 53.8284 54.141 54.3735 54.766 54.3735C55.3909 54.3735 55.8975 53.8286 55.8975 53.1562V51.2084C55.8975 50.6363 56.1237 50.0877 56.5186 49.7033C56.9186 49.314 57.4381 49.1313 57.9816 49.1902C58.9278 49.2921 59.669 50.26 59.669 51.3935V54.4543C59.669 55.1266 60.1755 55.6717 60.8005 55.6717C61.4253 55.6717 61.932 55.1267 61.932 54.4543V52.5066C61.932 51.9344 62.1582 51.3858 62.5531 51.0015C62.9531 50.6121 63.4727 50.4296 64.0161 50.4884C64.9623 50.5903 65.7035 51.5581 65.7035 52.6917V55.7526C65.7035 56.4248 66.21 56.97 66.835 56.97C67.4598 56.97 67.9665 56.425 67.9665 55.7526V53.8049C67.9665 53.2327 68.1927 52.6841 68.5876 52.2998C68.9876 51.9106 69.5068 51.7278 70.0506 51.7868C70.9968 51.8886 71.738 52.8564 71.738 53.99V67.4391H71.7373Z" fill="white"/>
</svg>
